<?xml version="1.0" encoding="utf-8"?>
<!-- Generator: Adobe Illustrator 19.0.0, SVG Export Plug-In . SVG Version: 6.00 Build 0)  -->
<svg version="1.1" id="Layer_1" xmlns="http://www.w3.org/2000/svg" xmlns:xlink="http://www.w3.org/1999/xlink" x="0px" y="0px"
	 viewBox="0 0 1069.3 352.1" style="enable-background:new 0 0 1069.3 352.1;" xml:space="preserve">
<style type="text/css">
	.st0{fill:#FCFCFC;}
</style>
<g id="XMLID_2_">
	<path id="XMLID_13_" class="st0" d="M316.6,202.6L275.5,51.1c-0.9-3.5-3.7-6.2-7.1-7.1L116.9,2.9c-3-0.8-6.3-0.2-8.8,1.7
		c-0.2,0.1-0.3,0.3-0.5,0.4L107,4.5l-96.3,96.3l0,0c-0.2,0.2-0.4,0.4-0.6,0.6c-2.2,2.6-2.9,6.2-1.9,9.5l45.7,146.9
		c0.9,2.8,2.9,5,5.5,6.2l185.7,84.6c1.3,0.6,2.8,0.9,4.2,0.9c2.4,0,4.7-0.8,6.6-2.5c1.2-1,2.1-2.3,2.7-3.7l0,0l56-131.7
		c0.1-0.1,0.1-0.1,0.2-0.2C316.8,208.9,317.4,205.7,316.6,202.6z M251.2,309l-26.7-93.6H291L251.2,309z M293.5,195.1h-74.8
		L201,132.7l59.3-60.1L293.5,195.1z M124.3,195.1v-63.4l57.4,7.3l16,56.1H124.3z M245.5,58.8L186,119.1l-61.6-7.8V25.9L245.5,58.8z
		 M104.1,108.7l-64.4-8.2l64.4-64.4V108.7z M32.3,120l71.8,9.1v76.1c0,0.7,0.1,1.5,0.2,2.2l-34.2,34.2L32.3,120z M86.3,254.1
		l38.6-38.6h78.5l30.1,105.7L86.3,254.1z"/>
	<g id="XMLID_3_">
		<path id="XMLID_10_" class="st0" d="M511.9,229.8l-6.6-18.2H459l-6.8,18.2h-26.2l41.7-107.7h28.7L538,229.8H511.9z M482.1,145
			l-16.8,46.3h33.6L482.1,145z"/>
		<path id="XMLID_8_" class="st0" d="M602,176c0-33.1,25-55.7,57.3-55.7c23.7,0,37.5,12.9,45.1,26.3l-19.7,9.7
			c-4.5-8.7-14.2-15.7-25.4-15.7c-19.5,0-33.7,15-33.7,35.4c0,20.3,14.2,35.4,33.7,35.4c11.1,0,20.8-6.8,25.4-15.7l19.7,9.5
			c-7.8,13.4-21.3,26.5-45.1,26.5C627,231.8,602,209.1,602,176z"/>
		<path id="XMLID_6_" class="st0" d="M876.3,229.8v-75.4L846,229.8h-10l-30.4-75.4v75.4h-22.9V122.1h32.1l26.2,65.1l26.2-65.1h32.3
			v107.7H876.3z"/>
		<path id="XMLID_4_" class="st0" d="M985.3,229.8V122.1h76.2v20.2h-53.3v22.8h52.2v20.2h-52.2v24.4h53.3v20.2H985.3z"/>
	</g>
</g>
</svg>
